<svg width="286" height="360" viewBox="0 0 286 360" fill="none" xmlns="http://www.w3.org/2000/svg">
<rect width="286" height="360" rx="14" fill="#A6A6A6"/>
<rect x="12" y="12" width="50" height="27" rx="10" fill="#3D3D3D"/>
<path d="M24.5039 27.0879V26.2266H27.4336V27.0879H24.5039ZM29.707 21.2344H30.6387V30H29.6016V22.3184C29.207 22.5762 28.7246 22.7969 28.1543 22.9805V22.002C28.2168 21.9746 28.3438 21.9199 28.5352 21.8379C28.7266 21.7559 28.8691 21.6934 28.9629 21.6504C29.0605 21.6074 29.1816 21.5469 29.3262 21.4688C29.4707 21.3906 29.5977 21.3125 29.707 21.2344ZM34.5117 30.1348C33.9883 30.1348 33.5215 30.0664 33.1113 29.9297C32.7051 29.793 32.4082 29.6348 32.2207 29.4551L32.5488 28.5938C33.0996 29.0273 33.7559 29.2441 34.5176 29.2441C35.1035 29.2441 35.5684 29.0996 35.9121 28.8105C36.2598 28.5176 36.4336 28.1094 36.4336 27.5859C36.4336 27.3008 36.3887 27.0527 36.2988 26.8418C36.2129 26.627 36.0957 26.4551 35.9473 26.3262C35.8027 26.1934 35.6152 26.0879 35.3848 26.0098C35.1582 25.9277 34.9238 25.8711 34.6816 25.8398C34.4434 25.8047 34.166 25.7832 33.8496 25.7754C33.8105 25.7754 33.752 25.7754 33.6738 25.7754C33.5957 25.7715 33.5371 25.7695 33.498 25.7695V24.8965H33.791C34.0645 24.8926 34.3047 24.8789 34.5117 24.8555C34.7227 24.8281 34.9316 24.7812 35.1387 24.7148C35.3496 24.6484 35.5234 24.5605 35.6602 24.4512C35.7969 24.3418 35.9082 24.1953 35.9941 24.0117C36.0801 23.8281 36.123 23.6113 36.123 23.3613C36.123 22.4238 35.5859 21.9551 34.5117 21.9551C34.125 21.9551 33.7617 22.0117 33.4219 22.125C33.082 22.2383 32.791 22.3906 32.5488 22.582L32.2207 21.7266C32.8027 21.2852 33.6406 21.0645 34.7344 21.0645C35.1758 21.0645 35.584 21.1465 35.959 21.3105C36.334 21.4707 36.6426 21.7188 36.8848 22.0547C37.127 22.3867 37.248 22.7773 37.248 23.2266C37.248 23.7734 37.1133 24.2227 36.8438 24.5742C36.5742 24.9258 36.1953 25.1777 35.707 25.3301C36.2539 25.4473 36.6816 25.7031 36.9902 26.0977C37.3027 26.4922 37.459 26.9922 37.459 27.5977C37.459 28.3672 37.1836 28.9824 36.6328 29.4434C36.082 29.9043 35.375 30.1348 34.5117 30.1348ZM46.459 25.582C47.1191 25.582 47.6289 25.791 47.9883 26.209C48.3477 26.623 48.5273 27.166 48.5273 27.8379C48.5273 28.4941 48.3438 29.0332 47.9766 29.4551C47.6133 29.877 47.1074 30.0879 46.459 30.0879C45.8027 30.0879 45.2949 29.8789 44.9355 29.4609C44.5762 29.0391 44.3965 28.498 44.3965 27.8379C44.3965 27.1777 44.5781 26.6367 44.9414 26.2148C45.3047 25.793 45.8105 25.582 46.459 25.582ZM47.4316 26.707C47.2012 26.4023 46.877 26.25 46.459 26.25C46.041 26.25 45.7148 26.4043 45.4805 26.7129C45.25 27.0215 45.1348 27.3965 45.1348 27.8379C45.1348 28.2871 45.25 28.6641 45.4805 28.9688C45.7148 29.2734 46.041 29.4258 46.459 29.4258C46.877 29.4258 47.2012 29.2715 47.4316 28.9629C47.666 28.6543 47.7832 28.2793 47.7832 27.8379C47.7832 27.3887 47.666 27.0117 47.4316 26.707ZM40.4238 30.0234L45.082 21.4336H46.0312L41.2148 30.0234H40.4238ZM40.5352 21.2754C41.1016 21.2754 41.5547 21.4883 41.8945 21.9141C42.2383 22.3359 42.4102 22.875 42.4102 23.5312C42.4102 24.1719 42.2383 24.6992 41.8945 25.1133C41.5508 25.5273 41.0977 25.7344 40.5352 25.7344C39.9688 25.7344 39.5176 25.5293 39.1816 25.1191C38.8457 24.7051 38.6777 24.1758 38.6777 23.5312C38.6777 22.8789 38.8457 22.3398 39.1816 21.9141C39.5215 21.4883 39.9727 21.2754 40.5352 21.2754ZM40.5352 21.9258C40.1836 21.9258 39.9102 22.082 39.7148 22.3945C39.5195 22.707 39.4219 23.0859 39.4219 23.5312C39.4219 23.9805 39.5176 24.3477 39.709 24.6328C39.9043 24.9141 40.1797 25.0547 40.5352 25.0547C40.8906 25.0547 41.166 24.9102 41.3613 24.6211C41.5566 24.3281 41.6543 23.9648 41.6543 23.5312C41.6543 23.082 41.5547 22.7031 41.3555 22.3945C41.1562 22.082 40.8828 21.9258 40.5352 21.9258Z" fill="white"/>
</svg>
